# xmcd
#
# Track frame offsets: 
#        150
#        10784
#        22669
#        36437
#        51729
#        62857
#        75454
#        88153
#        101802
#        118766
#        130332
#
# Disc length: 1955 seconds
#
# Revision: 0
# Processed by: cddbd v1.5.2PL0 Copyright (c) Steve Scherf et al.
# Submitted via: ExactAudioCopy v0.99pb3
#
DISCID=9207a10b
DTITLE=Kim Carson - Classic Twang
DYEAR=1900
DGENRE=Country
TTITLE0=You're Looking At Country
TTITLE1=Pass Me By
TTITLE2=Driving Nails in My Coffin
TTITLE3=I'm Not Lisa
TTITLE4=Above and Beyond
TTITLE5=After the Fire is Gone
TTITLE6=Boney Fingers
TTITLE7=Teddy Bear Song
TTITLE8=Crying Over You
TTITLE9=Thank God and Greyhound
TTITLE10=Why Me
EXTD=
EXTT0=
EXTT1=
EXTT2=
EXTT3=
EXTT4=
EXTT5=
EXTT6=
EXTT7=
EXTT8=
EXTT9=
EXTT10=
PLAYORDER=
